{
	"asset":{
		"generator":"Khronos glTF Blender I/O v4.4.56",
		"version":"2.0"
	},
	"scene":0,
	"scenes":[
		{
			"name":"Scene",
			"nodes":[
				0,
				1,
				2,
				3
			]
		}
	],
	"nodes":[
		{
			"mesh":0,
			"name":"Cube"
		},
		{
			"mesh":1,
			"name":"ItemRight",
			"translation":[
				-4.2943267822265625,
				3.840874671936035,
				0
			]
		},
		{
			"mesh":2,
			"name":"ItemLeft",
			"translation":[
				4.29433012008667,
				3.840869903564453,
				0
			]
		},
		{
			"mesh":3,
			"name":"GunEntry",
			"translation":[
				0,
				3.8550000190734863,
				0
			]
		}
	],
	"animations":[
		{
			"channels":[
				{
					"sampler":0,
					"target":{
						"node":1,
						"path":"translation"
					}
				}
			],
			"name":"[Action Stash]",
			"samplers":[
				{
					"input":16,
					"interpolation":"LINEAR",
					"output":17
				}
			]
		},
		{
			"channels":[
				{
					"sampler":0,
					"target":{
						"node":2,
						"path":"translation"
					}
				}
			],
			"name":"[Action Stash]",
			"samplers":[
				{
					"input":16,
					"interpolation":"LINEAR",
					"output":18
				}
			]
		},
		{
			"channels":[
				{
					"sampler":0,
					"target":{
						"node":3,
						"path":"rotation"
					}
				}
			],
			"name":"[Action Stash]",
			"samplers":[
				{
					"input":19,
					"interpolation":"LINEAR",
					"output":20
				}
			]
		}
	],
	"meshes":[
		{
			"name":"Cube",
			"primitives":[
				{
					"attributes":{
						"POSITION":0,
						"NORMAL":1,
						"TEXCOORD_0":2
					},
					"indices":3
				}
			]
		},
		{
			"name":"Cube.002",
			"primitives":[
				{
					"attributes":{
						"POSITION":4,
						"NORMAL":5,
						"TEXCOORD_0":6
					},
					"indices":7
				}
			]
		},
		{
			"name":"Cube.003",
			"primitives":[
				{
					"attributes":{
						"POSITION":8,
						"NORMAL":9,
						"TEXCOORD_0":10
					},
					"indices":11
				}
			]
		},
		{
			"name":"Cube.001",
			"primitives":[
				{
					"attributes":{
						"POSITION":12,
						"NORMAL":13,
						"TEXCOORD_0":14
					},
					"indices":15
				}
			]
		}
	],
	"accessors":[
		{
			"bufferView":0,
			"componentType":5126,
			"count":555,
			"max":[
				7.05580997467041,
				4.3516645431518555,
				3.9542739391326904
			],
			"min":[
				-7.05580997467041,
				-0.1958509087562561,
				-3.9542739391326904
			],
			"type":"VEC3"
		},
		{
			"bufferView":1,
			"componentType":5126,
			"count":555,
			"type":"VEC3"
		},
		{
			"bufferView":2,
			"componentType":5126,
			"count":555,
			"type":"VEC2"
		},
		{
			"bufferView":3,
			"componentType":5123,
			"count":1116,
			"type":"SCALAR"
		},
		{
			"bufferView":4,
			"componentType":5126,
			"count":24,
			"max":[
				1.0588655471801758,
				0.07500004768371582,
				3.339693784713745
			],
			"min":[
				-1.0588650703430176,
				-0.07500004768371582,
				-3.339693784713745
			],
			"type":"VEC3"
		},
		{
			"bufferView":5,
			"componentType":5126,
			"count":24,
			"type":"VEC3"
		},
		{
			"bufferView":6,
			"componentType":5126,
			"count":24,
			"type":"VEC2"
		},
		{
			"bufferView":7,
			"componentType":5123,
			"count":36,
			"type":"SCALAR"
		},
		{
			"bufferView":8,
			"componentType":5126,
			"count":24,
			"max":[
				1.0588650703430176,
				0.07500004768371582,
				3.339693784713745
			],
			"min":[
				-1.0588655471801758,
				-0.07500004768371582,
				-3.339693784713745
			],
			"type":"VEC3"
		},
		{
			"bufferView":9,
			"componentType":5126,
			"count":24,
			"type":"VEC3"
		},
		{
			"bufferView":10,
			"componentType":5126,
			"count":24,
			"type":"VEC2"
		},
		{
			"bufferView":11,
			"componentType":5123,
			"count":36,
			"type":"SCALAR"
		},
		{
			"bufferView":12,
			"componentType":5126,
			"count":84,
			"max":[
				0.7279787659645081,
				0.061362504959106445,
				3.339693784713745
			],
			"min":[
				-0.7279787659645081,
				-0.039137646555900574,
				-3.339693784713745
			],
			"type":"VEC3"
		},
		{
			"bufferView":13,
			"componentType":5126,
			"count":84,
			"type":"VEC3"
		},
		{
			"bufferView":14,
			"componentType":5126,
			"count":84,
			"type":"VEC2"
		},
		{
			"bufferView":15,
			"componentType":5123,
			"count":156,
			"type":"SCALAR"
		},
		{
			"bufferView":16,
			"componentType":5126,
			"count":80,
			"max":[
				3.3333333333333335
			],
			"min":[
				0.041666666666666664
			],
			"type":"SCALAR"
		},
		{
			"bufferView":17,
			"componentType":5126,
			"count":80,
			"type":"VEC3"
		},
		{
			"bufferView":18,
			"componentType":5126,
			"count":80,
			"type":"VEC3"
		},
		{
			"bufferView":19,
			"componentType":5126,
			"count":25,
			"max":[
				1.0416666666666667
			],
			"min":[
				0.041666666666666664
			],
			"type":"SCALAR"
		},
		{
			"bufferView":20,
			"componentType":5126,
			"count":25,
			"type":"VEC4"
		}
	],
	"bufferViews":[
		{
			"buffer":0,
			"byteLength":6660,
			"byteOffset":0,
			"target":34962
		},
		{
			"buffer":0,
			"byteLength":6660,
			"byteOffset":6660,
			"target":34962
		},
		{
			"buffer":0,
			"byteLength":4440,
			"byteOffset":13320,
			"target":34962
		},
		{
			"buffer":0,
			"byteLength":2232,
			"byteOffset":17760,
			"target":34963
		},
		{
			"buffer":0,
			"byteLength":288,
			"byteOffset":19992,
			"target":34962
		},
		{
			"buffer":0,
			"byteLength":288,
			"byteOffset":20280,
			"target":34962
		},
		{
			"buffer":0,
			"byteLength":192,
			"byteOffset":20568,
			"target":34962
		},
		{
			"buffer":0,
			"byteLength":72,
			"byteOffset":20760,
			"target":34963
		},
		{
			"buffer":0,
			"byteLength":288,
			"byteOffset":20832,
			"target":34962
		},
		{
			"buffer":0,
			"byteLength":288,
			"byteOffset":21120,
			"target":34962
		},
		{
			"buffer":0,
			"byteLength":192,
			"byteOffset":21408,
			"target":34962
		},
		{
			"buffer":0,
			"byteLength":72,
			"byteOffset":21600,
			"target":34963
		},
		{
			"buffer":0,
			"byteLength":1008,
			"byteOffset":21672,
			"target":34962
		},
		{
			"buffer":0,
			"byteLength":1008,
			"byteOffset":22680,
			"target":34962
		},
		{
			"buffer":0,
			"byteLength":672,
			"byteOffset":23688,
			"target":34962
		},
		{
			"buffer":0,
			"byteLength":312,
			"byteOffset":24360,
			"target":34963
		},
		{
			"buffer":0,
			"byteLength":320,
			"byteOffset":24672
		},
		{
			"buffer":0,
			"byteLength":960,
			"byteOffset":24992
		},
		{
			"buffer":0,
			"byteLength":960,
			"byteOffset":25952
		},
		{
			"buffer":0,
			"byteLength":100,
			"byteOffset":26912
		},
		{
			"buffer":0,
			"byteLength":400,
			"byteOffset":27012
		}
	],
	"buffers":[
		{
			"byteLength":27412,
			"uri":"Dealing%20Table.bin"
		}
	]
}
